<svg xmlns="http://www.w3.org/2000/svg" width="20.6" height="19.02"><defs><style>.a{fill:none;stroke:#49b881;stroke-miterlimit:10;stroke-width:1.5px}</style></defs><path class="a" d="M8.41 12a1.89 1.89 0 1 1 1.89 1.89A1.89 1.89 0 0 1 8.41 12zM.75 2.64a1.89 1.89 0 1 1 1.89 1.89A1.89 1.89 0 0 1 .75 2.64zM16.07 7.33A1.89 1.89 0 1 1 18 9.22a1.88 1.88 0 0 1-1.93-1.89z"/><path stroke-linecap="round" fill="none" stroke="#49b881" stroke-miterlimit="10" stroke-width="1.5" d="M.75 18.27h19.1"/><path class="a" d="M8.74 10.13c-1.45-1.75-3.58-4.32-4.9-6M16.35 8.31l-4.16 2.55"/></svg>