<svg xmlns="http://www.w3.org/2000/svg" width="22.76" height="20.08"><defs><style>.a{fill:none;stroke:#49b881;stroke-width:1.5px;stroke-linecap:round;stroke-linejoin:round}</style></defs><path class="a" d="M13.85 10.46h4.53M13.85 13.88h3.31"/><path d="M9.35 11.74A2.25 2.25 0 1 1 7.1 9.48a2.25 2.25 0 0 1 2.25 2.26z" stroke-miterlimit="10" fill="none" stroke="#49b881" stroke-width="1.5"/><path d="M11.35 18.93a4.78 4.78 0 0 0-8.5 0" stroke-miterlimit="10" stroke-linecap="round" fill="none" stroke="#49b881" stroke-width="1.5"/><rect class="a" x="8.13" y=".75" width="6.51" height="6.51" rx="1.34" ry="1.34"/><path class="a" d="M8.13 5H2.64A1.82 1.82 0 0 0 .75 6.76v10.81a1.83 1.83 0 0 0 1.89 1.76h17.48A1.83 1.83 0 0 0 22 17.57V6.76A1.82 1.82 0 0 0 20.12 5h-5.48"/></svg>