<svg xmlns="http://www.w3.org/2000/svg" width="16.58" height="26.54"><defs><style>.a{fill:none;stroke:#49b881;stroke-linecap:round;stroke-linejoin:round;stroke-width:1.5px}</style></defs><path class="a" d="M9.2 21.19a.91.91 0 1 1-.91-.91.91.91 0 0 1 .91.91z"/><path d="M5.56 14.92a.92.92 0 1 1-.91-.92.91.91 0 0 1 .91.92z" stroke-miterlimit="10" fill="none" stroke="#49b881"/><path class="a" d="M12.48 11.5a2 2 0 1 1-2-2 2 2 0 0 1 2 2zM6.82 3.61h2.94"/><rect class="a" x=".75" y=".75" width="15.08" height="25.04" rx="3.59" ry="3.59"/><path class="a" d="M4.65 14.92l4.18-2.43"/></svg>