<svg xmlns="http://www.w3.org/2000/svg" width="15.48" height="23.19"><defs><style>.c{fill:none;stroke:#49b881;stroke-width:1.5px;stroke-linecap:round;stroke-linejoin:round}</style></defs><path d="M10.27 14.07a2.53 2.53 0 1 1-2.53-2.53 2.53 2.53 0 0 1 2.53 2.53z" stroke-miterlimit="10" fill="none" stroke="#49b881" stroke-width="1.5"/><path d="M13.65 22.21a6.64 6.64 0 0 0-11.82 0" stroke-linecap="round" stroke-miterlimit="10" fill="none" stroke="#49b881" stroke-width="1.5"/><rect class="c" x="4.48" y=".75" width="6.51" height="6.51" rx="1.34" ry="1.34"/><path class="c" d="M4 4.33H2.06A1.31 1.31 0 0 0 .75 5.64v15.48a1.32 1.32 0 0 0 1.31 1.32h11.36a1.32 1.32 0 0 0 1.31-1.32V5.64a1.31 1.31 0 0 0-1.31-1.31h-1.93"/></svg>