<svg xmlns="http://www.w3.org/2000/svg" width="24.62" height="24.11"><defs><style>.a{fill:none;stroke:#49b881;stroke-width:1.5px;stroke-linecap:round;stroke-linejoin:round}</style></defs><path class="a" d="M3.98 22.73v.63M20.8 22.73v.63"/><path d="M17.54 5.17a1.62 1.62 0 1 1 1.62 1.61 1.62 1.62 0 0 1-1.62-1.61z" stroke-miterlimit="10" fill="none" stroke="#49b881" stroke-width="1.5"/><path class="a" d="M.91.75h22.96v8.83H.91zM4.3 3.91v2.51M7.7 3.91v2.51M4.3 16.16v2.51M7.7 16.16v2.51M19.75 17.4a.78.78 0 1 1-.78-.78.78.78 0 0 1 .78.78z"/><path class="a" d="M.75 12.98h22.96v8.83H.75z"/></svg>