<svg xmlns="http://www.w3.org/2000/svg" width="26.57" height="16.85"><defs><style>.a,.b{fill:none;stroke:#49b881;stroke-width:1.5px}.a{stroke-miterlimit:10}.b{stroke-linecap:round;stroke-linejoin:round}.c{fill:#49b881}</style></defs><path class="a" d="M.75 3.46A2.49 2.49 0 1 1 3.24 6 2.48 2.48 0 0 1 .75 3.46zM10.48 13.6A2.49 2.49 0 1 1 13 16.1a2.49 2.49 0 0 1-2.52-2.5z"/><path class="b" d="M21.27.75l4.55 4.56M21.27.75l4.55 4.56M21.27 5.31L25.82.75M21.27 5.31L25.82.75"/><path class="c" d="M8.35 10.26A.9.9 0 0 1 9.62 9 .9.9 0 0 1 9 10.52a.93.93 0 0 1-.64-.26M6.23 8.13a.88.88 0 0 1 0-1.27.9.9 0 1 1 .63 1.54.86.86 0 0 1-.63-.27M16.29 10.28a.91.91 0 1 1 1.28 0 .92.92 0 0 1-1.28 0m2.12-2.12a.91.91 0 1 1 1.28 0 .92.92 0 0 1-1.28 0"/></svg>